<svg width="208" height="56" viewBox="0 0 208 56" fill="none" xmlns="http://www.w3.org/2000/svg">
<path d="M39.8184 19.3008C39.2533 19.3008 38.7428 19.237 38.2871 19.1094C37.8314 18.9818 37.2754 18.8724 36.6191 18.7812C36.5462 18.5807 36.4733 18.3073 36.4004 17.9609C36.3275 17.6146 36.2637 17.25 36.209 16.8672C36.1725 16.4844 36.1543 16.1745 36.1543 15.9375C36.3001 15.8281 36.4095 15.7734 36.4824 15.7734C36.7559 15.7734 36.9017 15.8281 36.9199 15.9375C36.9928 16.3021 37.1751 16.6667 37.4668 17.0312C37.7585 17.3958 38.1139 17.7057 38.5332 17.9609C38.9525 18.1979 39.3809 18.3164 39.8184 18.3164C40.4017 18.3164 40.8757 18.1615 41.2402 17.8516C41.623 17.5234 41.8145 17.0586 41.8145 16.457C41.8145 15.819 41.5684 15.2904 41.0762 14.8711C40.6934 14.5612 40.3652 14.3424 40.0918 14.2148C39.8366 14.069 39.5814 13.9414 39.3262 13.832C39.0892 13.7044 38.7884 13.5312 38.4238 13.3125C37.002 12.4922 36.291 11.5169 36.291 10.3867C36.291 9.73047 36.4733 9.15625 36.8379 8.66406C37.2025 8.15365 37.6855 7.76172 38.2871 7.48828C38.9069 7.19661 39.5632 7.05078 40.2559 7.05078C40.4564 7.05078 40.6842 7.06901 40.9395 7.10547C41.1947 7.1237 41.4772 7.15104 41.7871 7.1875C42.097 7.24219 42.3522 7.28776 42.5527 7.32422C42.7533 7.36068 42.9173 7.38802 43.0449 7.40625C43.2454 8.24479 43.3548 9.17448 43.373 10.1953C43.373 10.2865 43.2546 10.332 43.0176 10.332C42.7624 10.332 42.6257 10.2682 42.6074 10.1406C42.5163 9.63021 42.252 9.14714 41.8145 8.69141C41.3952 8.23568 40.9121 8.00781 40.3652 8.00781C39.0527 8.00781 38.3965 8.54557 38.3965 9.62109C38.3965 9.89453 38.4238 10.1406 38.4785 10.3594C38.5514 10.5599 38.7064 10.7513 38.9434 10.9336C39.5085 11.3711 40.1738 11.8086 40.9395 12.2461C41.7233 12.6836 42.3704 13.0938 42.8809 13.4766C43.6465 14.0599 44.0293 14.7435 44.0293 15.5273C44.0293 16.2383 43.8379 16.8854 43.4551 17.4688C43.0723 18.0339 42.5618 18.4805 41.9238 18.8086C41.2858 19.1367 40.584 19.3008 39.8184 19.3008ZM48.8145 19.1914C47.9759 19.1914 47.2832 18.9727 46.7363 18.5352C46.1895 18.0794 45.916 17.4049 45.916 16.5117C45.916 15.418 46.627 14.5065 48.0488 13.7773C48.6686 13.4674 49.2793 13.2214 49.8809 13.0391C50.5007 12.8568 51.1204 12.6471 51.7402 12.4102C51.9043 12.3555 51.9863 12.2188 51.9863 12V9.94922C51.9863 9.36589 51.804 8.91927 51.4395 8.60938C51.0749 8.28125 50.6374 8.11719 50.127 8.11719C49.5801 8.11719 49.1243 8.30859 48.7598 8.69141C48.3952 9.05599 48.2129 9.53906 48.2129 10.1406C48.2129 10.7786 47.8392 11.0977 47.0918 11.0977C46.5632 11.0977 46.2077 10.9245 46.0254 10.5781C46.0254 10.1953 46.1803 9.80339 46.4902 9.40234C46.8184 8.98307 47.2376 8.60026 47.748 8.25391C48.2585 7.90755 48.8145 7.625 49.416 7.40625C50.0358 7.1875 50.6465 7.07812 51.248 7.07812C52.2507 7.07812 52.9707 7.32422 53.4082 7.81641C53.8457 8.29036 54.0645 9.0651 54.0645 10.1406V16.457C54.0645 16.8398 54.1647 17.1589 54.3652 17.4141C54.5658 17.6693 54.8392 17.7969 55.1855 17.7969C55.4225 17.7969 55.7415 17.6693 56.1426 17.4141C56.2155 17.4141 56.252 17.487 56.252 17.6328C56.252 17.8698 56.2064 18.0612 56.1152 18.207C55.3678 18.8451 54.7298 19.1641 54.2012 19.1641C53.7819 19.1641 53.3809 18.9909 52.998 18.6445C52.6152 18.2982 52.3509 17.9336 52.2051 17.5508C52.1139 17.6237 51.9954 17.724 51.8496 17.8516C51.722 17.9609 51.6126 18.0521 51.5215 18.125C51.1387 18.4167 50.7194 18.6719 50.2637 18.8906C49.8262 19.0911 49.3431 19.1914 48.8145 19.1914ZM49.8535 17.6328C50.3639 17.6328 50.847 17.487 51.3027 17.1953C51.7585 16.9036 51.9863 16.5938 51.9863 16.2656V13.4492C51.5124 13.6315 51.0566 13.7956 50.6191 13.9414C50.1999 14.0872 49.8626 14.2057 49.6074 14.2969C49.2793 14.4245 48.9603 14.6523 48.6504 14.9805C48.3587 15.3086 48.2129 15.6823 48.2129 16.1016C48.2129 16.6484 48.377 17.0404 48.7051 17.2773C49.0514 17.5143 49.4342 17.6328 49.8535 17.6328ZM62.3223 19.1914C62.1764 18.8451 61.9303 18.2799 61.584 17.4961C61.2559 16.7122 60.8275 15.7096 60.2988 14.4883C59.7702 13.2487 59.278 12.1367 58.8223 11.1523C58.3665 10.1497 57.9382 9.25651 57.5371 8.47266C57.3366 8.10807 56.7988 7.92578 55.9238 7.92578C55.8509 7.92578 55.8145 7.80729 55.8145 7.57031C55.8145 7.35156 55.8509 7.20573 55.9238 7.13281C56.3978 7.15104 56.8717 7.17839 57.3457 7.21484C57.8197 7.2513 58.2936 7.26953 58.7676 7.26953C59.2233 7.26953 59.679 7.2513 60.1348 7.21484C60.5905 7.17839 61.0462 7.15104 61.502 7.13281C61.5384 7.20573 61.5384 7.36068 61.502 7.59766C61.4837 7.81641 61.4473 7.92578 61.3926 7.92578C60.4993 7.92578 60.0527 8.08073 60.0527 8.39062C60.0527 8.40885 60.0618 8.44531 60.0801 8.5C60.0983 8.53646 60.1165 8.57292 60.1348 8.60938L63.3613 15.9102L66.123 9.62109C66.2142 9.4388 66.2689 9.28385 66.2871 9.15625C66.3236 9.01042 66.3418 8.89193 66.3418 8.80078C66.3418 8.21745 65.6855 7.92578 64.373 7.92578C64.3001 7.92578 64.2637 7.80729 64.2637 7.57031C64.2637 7.35156 64.3001 7.20573 64.373 7.13281C64.5736 7.15104 64.9473 7.1875 65.4941 7.24219C66.041 7.27865 66.5332 7.28776 66.9707 7.26953L69.7051 7.13281C69.7415 7.27865 69.7598 7.41536 69.7598 7.54297C69.7598 7.79818 69.696 7.92578 69.5684 7.92578C69.3132 7.92578 68.9759 7.9987 68.5566 8.14453C68.1374 8.29036 67.8548 8.52734 67.709 8.85547L63.3613 18.6719C63.2337 18.9635 63.0423 19.1458 62.7871 19.2188C62.5319 19.3099 62.377 19.3008 62.3223 19.1914ZM75.8848 19.1641C74.8822 19.1641 73.9616 18.8997 73.123 18.3711C72.2845 17.8424 71.61 17.1406 71.0996 16.2656C70.6074 15.3724 70.3613 14.3789 70.3613 13.2852C70.3613 12.0091 70.5983 10.9062 71.0723 9.97656C71.5462 9.04688 72.1934 8.33594 73.0137 7.84375C73.834 7.33333 74.7546 7.07812 75.7754 7.07812C76.6139 7.07812 77.3522 7.24219 77.9902 7.57031C78.6283 7.88021 79.1204 8.28125 79.4668 8.77344C79.7949 9.28385 80.0319 9.80339 80.1777 10.332C80.3418 10.8424 80.4238 11.3529 80.4238 11.8633C80.4238 12.2279 80.3691 12.4557 80.2598 12.5469C80.1504 12.6198 79.9408 12.6562 79.6309 12.6562H72.7402C72.5944 12.6562 72.5215 12.7018 72.5215 12.793C72.5215 13.5586 72.6764 14.2969 72.9863 15.0078C73.2962 15.7005 73.752 16.2747 74.3535 16.7305C74.9551 17.1862 75.6934 17.4141 76.5684 17.4141C77.334 17.4141 77.972 17.3047 78.4824 17.0859C79.0111 16.849 79.3939 16.6393 79.6309 16.457L79.8223 16.3203C79.9316 16.3203 79.9863 16.4388 79.9863 16.6758C79.9863 16.8034 79.9316 16.9674 79.8223 17.168C79.4577 17.6784 78.9199 18.1432 78.209 18.5625C77.498 18.9635 76.7233 19.1641 75.8848 19.1641ZM72.7402 11.5078H78.0723C78.1634 11.5078 78.209 11.4167 78.209 11.2344C78.209 10.8333 78.0996 10.3958 77.8809 9.92188C77.6803 9.42969 77.3704 9.0013 76.9512 8.63672C76.5319 8.27214 76.0033 8.08984 75.3652 8.08984C74.7819 8.08984 74.2806 8.29036 73.8613 8.69141C73.4421 9.07422 73.123 9.52083 72.9043 10.0312C72.6855 10.5234 72.5762 10.9518 72.5762 11.3164C72.5762 11.444 72.6309 11.5078 72.7402 11.5078ZM92.7559 19.1914C91.8444 19.1914 91.0788 18.8906 90.459 18.2891C89.8574 17.6875 89.5566 16.8307 89.5566 15.7188V8.77344H87.9707C87.8796 8.77344 87.834 8.58203 87.834 8.19922C87.834 8.08984 87.8431 8.02604 87.8613 8.00781C88.4082 7.7526 88.9824 7.26953 89.584 6.55859C90.0033 6.06641 90.3132 5.63802 90.5137 5.27344C90.7324 4.90885 90.8418 4.6901 90.8418 4.61719C91.3887 4.61719 91.6621 4.66276 91.6621 4.75391V7.46094L93.8223 7.48828H95.3535C95.4993 7.48828 95.5723 7.57031 95.5723 7.73438C95.5723 8.08073 95.4811 8.42708 95.2988 8.77344H91.6621V15.4727C91.6621 16.2018 91.8444 16.7852 92.209 17.2227C92.5918 17.6602 93.084 17.8789 93.6855 17.8789C94.2507 17.8789 94.8158 17.7057 95.3809 17.3594C95.4355 17.3229 95.5176 17.4049 95.627 17.6055C95.7363 17.7878 95.7819 17.888 95.7637 17.9062C95.4902 18.1979 95.071 18.4896 94.5059 18.7812C93.9408 19.0547 93.3574 19.1914 92.7559 19.1914ZM96.5566 19.082C96.4837 19.0091 96.4473 18.8542 96.4473 18.6172C96.4473 18.3984 96.4837 18.2891 96.5566 18.2891C96.7025 18.2891 96.903 18.2617 97.1582 18.207C97.4134 18.1523 97.6504 18.0794 97.8691 17.9883C98.0879 17.8971 98.2064 17.8151 98.2246 17.7422C98.3522 17.25 98.416 16.6211 98.416 15.8555V3.98828C98.416 3.36849 98.3613 2.78516 98.252 2.23828C98.179 1.94661 97.7142 1.80078 96.8574 1.80078H96.6113C96.502 1.80078 96.4473 1.70052 96.4473 1.5C96.4473 1.20833 96.502 1.0625 96.6113 1.0625C97.541 0.971354 98.3249 0.825521 98.9629 0.625C99.6009 0.40625 100.038 0.233073 100.275 0.105469L100.412 0.0234375H100.467C100.54 0.0234375 100.613 0.078125 100.686 0.1875C100.758 0.278646 100.804 0.369792 100.822 0.460938C100.622 1.0625 100.521 1.85547 100.521 2.83984V8.82812C100.521 8.90104 100.54 8.9375 100.576 8.9375C100.594 8.9375 100.622 8.91927 100.658 8.88281C100.932 8.59115 101.278 8.30859 101.697 8.03516C102.135 7.74349 102.6 7.50651 103.092 7.32422C103.584 7.1237 104.049 7.02344 104.486 7.02344C105.708 7.02344 106.583 7.46094 107.111 8.33594C107.64 9.21094 107.904 10.5599 107.904 12.3828V15.3359C107.904 15.8464 107.923 16.3021 107.959 16.7031C107.995 17.1042 108.05 17.4505 108.123 17.7422C108.16 17.8151 108.287 17.8971 108.506 17.9883C108.725 18.0794 108.962 18.1523 109.217 18.207C109.472 18.2617 109.654 18.2891 109.764 18.2891C109.818 18.2891 109.855 18.3984 109.873 18.6172C109.891 18.8359 109.882 18.9909 109.846 19.082L106.92 18.9453L104.049 19.082C103.976 19.0091 103.939 18.8542 103.939 18.6172C103.939 18.3984 103.976 18.2891 104.049 18.2891C104.195 18.2891 104.386 18.2617 104.623 18.207C104.86 18.1523 105.079 18.0794 105.279 17.9883C105.48 17.8971 105.589 17.8151 105.607 17.7422C105.68 17.487 105.726 17.1953 105.744 16.8672C105.781 16.5391 105.799 16.1927 105.799 15.8281V12.9297C105.799 11.7995 105.699 10.9336 105.498 10.332C105.298 9.71224 104.988 9.28385 104.568 9.04688C104.149 8.8099 103.611 8.69141 102.955 8.69141C102.59 8.69141 102.217 8.80078 101.834 9.01953C101.469 9.22005 101.16 9.45703 100.904 9.73047C100.649 10.0039 100.521 10.25 100.521 10.4688V15.3086C100.521 15.8372 100.54 16.3021 100.576 16.7031C100.613 17.1042 100.667 17.4505 100.74 17.7422C100.777 17.8151 100.904 17.8971 101.123 17.9883C101.342 18.0794 101.579 18.1523 101.834 18.207C102.089 18.2617 102.271 18.2891 102.381 18.2891C102.436 18.2891 102.472 18.3984 102.49 18.6172C102.508 18.8359 102.499 18.9909 102.463 19.082L99.5371 18.9453L96.5566 19.082ZM116.982 19.1641C115.98 19.1641 115.059 18.8997 114.221 18.3711C113.382 17.8424 112.708 17.1406 112.197 16.2656C111.705 15.3724 111.459 14.3789 111.459 13.2852C111.459 12.0091 111.696 10.9062 112.17 9.97656C112.644 9.04688 113.291 8.33594 114.111 7.84375C114.932 7.33333 115.852 7.07812 116.873 7.07812C117.712 7.07812 118.45 7.24219 119.088 7.57031C119.726 7.88021 120.218 8.28125 120.564 8.77344C120.893 9.28385 121.13 9.80339 121.275 10.332C121.439 10.8424 121.521 11.3529 121.521 11.8633C121.521 12.2279 121.467 12.4557 121.357 12.5469C121.248 12.6198 121.038 12.6562 120.729 12.6562H113.838C113.692 12.6562 113.619 12.7018 113.619 12.793C113.619 13.5586 113.774 14.2969 114.084 15.0078C114.394 15.7005 114.85 16.2747 115.451 16.7305C116.053 17.1862 116.791 17.4141 117.666 17.4141C118.432 17.4141 119.07 17.3047 119.58 17.0859C120.109 16.849 120.492 16.6393 120.729 16.457L120.92 16.3203C121.029 16.3203 121.084 16.4388 121.084 16.6758C121.084 16.8034 121.029 16.9674 120.92 17.168C120.555 17.6784 120.018 18.1432 119.307 18.5625C118.596 18.9635 117.821 19.1641 116.982 19.1641ZM113.838 11.5078H119.17C119.261 11.5078 119.307 11.4167 119.307 11.2344C119.307 10.8333 119.197 10.3958 118.979 9.92188C118.778 9.42969 118.468 9.0013 118.049 8.63672C117.63 8.27214 117.101 8.08984 116.463 8.08984C115.88 8.08984 115.378 8.29036 114.959 8.69141C114.54 9.07422 114.221 9.52083 114.002 10.0312C113.783 10.5234 113.674 10.9518 113.674 11.3164C113.674 11.444 113.729 11.5078 113.838 11.5078ZM138.01 19.1641C137.9 19.1641 137.846 19.0091 137.846 18.6992V18.3711C137.846 18.2799 137.809 18.2435 137.736 18.2617C136.734 18.8268 135.768 19.1094 134.838 19.1094C133.835 19.1094 132.924 18.8633 132.104 18.3711C131.301 17.8607 130.663 17.1953 130.189 16.375C129.734 15.5365 129.506 14.625 129.506 13.6406C129.506 12.7656 129.67 11.9271 129.998 11.125C130.344 10.3229 130.8 9.61198 131.365 8.99219C131.949 8.35417 132.605 7.86198 133.334 7.51562C134.063 7.15104 134.82 6.96875 135.604 6.96875C136.387 6.96875 137.071 7.1237 137.654 7.43359C137.782 7.43359 137.846 7.26953 137.846 6.94141V3.98828C137.846 3.36849 137.791 2.78516 137.682 2.23828C137.609 1.94661 137.144 1.80078 136.287 1.80078H136.041C135.932 1.80078 135.877 1.70052 135.877 1.5C135.877 1.20833 135.932 1.0625 136.041 1.0625C137.062 0.971354 137.864 0.834635 138.447 0.652344C139.049 0.470052 139.477 0.28776 139.732 0.105469L139.842 0.0234375H139.896C139.969 0.0234375 140.042 0.078125 140.115 0.1875C140.188 0.278646 140.234 0.369792 140.252 0.460938C140.051 1.0625 139.951 1.85547 139.951 2.83984V15.1445C139.951 16.0013 140.006 16.694 140.115 17.2227C140.17 17.4049 140.325 17.5234 140.58 17.5781C140.854 17.6146 141.136 17.651 141.428 17.6875L141.674 17.7148C141.729 17.7331 141.756 17.8424 141.756 18.043C141.756 18.3164 141.701 18.4531 141.592 18.4531C140.99 18.4896 140.37 18.5898 139.732 18.7539C139.094 18.8997 138.602 19.0182 138.256 19.1094L138.01 19.1641ZM135.877 17.7695C136.497 17.7695 136.98 17.6328 137.326 17.3594C137.673 17.0677 137.846 16.6849 137.846 16.2109V9.70312C137.846 9.32031 137.636 8.96484 137.217 8.63672C136.816 8.29036 136.16 8.11719 135.248 8.11719C134.555 8.11719 133.954 8.33594 133.443 8.77344C132.933 9.21094 132.541 9.79427 132.268 10.5234C131.994 11.2344 131.857 12.0091 131.857 12.8477C131.857 13.7227 132.012 14.5339 132.322 15.2812C132.65 16.0286 133.115 16.6302 133.717 17.0859C134.318 17.5417 135.038 17.7695 135.877 17.7695ZM146.021 19.1914C145.183 19.1914 144.49 18.9727 143.943 18.5352C143.396 18.0794 143.123 17.4049 143.123 16.5117C143.123 15.418 143.834 14.5065 145.256 13.7773C145.876 13.4674 146.486 13.2214 147.088 13.0391C147.708 12.8568 148.327 12.6471 148.947 12.4102C149.111 12.3555 149.193 12.2188 149.193 12V9.94922C149.193 9.36589 149.011 8.91927 148.646 8.60938C148.282 8.28125 147.844 8.11719 147.334 8.11719C146.787 8.11719 146.331 8.30859 145.967 8.69141C145.602 9.05599 145.42 9.53906 145.42 10.1406C145.42 10.7786 145.046 11.0977 144.299 11.0977C143.77 11.0977 143.415 10.9245 143.232 10.5781C143.232 10.1953 143.387 9.80339 143.697 9.40234C144.025 8.98307 144.445 8.60026 144.955 8.25391C145.465 7.90755 146.021 7.625 146.623 7.40625C147.243 7.1875 147.854 7.07812 148.455 7.07812C149.458 7.07812 150.178 7.32422 150.615 7.81641C151.053 8.29036 151.271 9.0651 151.271 10.1406V16.457C151.271 16.8398 151.372 17.1589 151.572 17.4141C151.773 17.6693 152.046 17.7969 152.393 17.7969C152.63 17.7969 152.949 17.6693 153.35 17.4141C153.423 17.4141 153.459 17.487 153.459 17.6328C153.459 17.8698 153.413 18.0612 153.322 18.207C152.575 18.8451 151.937 19.1641 151.408 19.1641C150.989 19.1641 150.588 18.9909 150.205 18.6445C149.822 18.2982 149.558 17.9336 149.412 17.5508C149.321 17.6237 149.202 17.724 149.057 17.8516C148.929 17.9609 148.82 18.0521 148.729 18.125C148.346 18.4167 147.926 18.6719 147.471 18.8906C147.033 19.0911 146.55 19.1914 146.021 19.1914ZM147.061 17.6328C147.571 17.6328 148.054 17.487 148.51 17.1953C148.965 16.9036 149.193 16.5938 149.193 16.2656V13.4492C148.719 13.6315 148.264 13.7956 147.826 13.9414C147.407 14.0872 147.07 14.2057 146.814 14.2969C146.486 14.4245 146.167 14.6523 145.857 14.9805C145.566 15.3086 145.42 15.6823 145.42 16.1016C145.42 16.6484 145.584 17.0404 145.912 17.2773C146.258 17.5143 146.641 17.6328 147.061 17.6328ZM159.01 19.1914C158.098 19.1914 157.333 18.8906 156.713 18.2891C156.111 17.6875 155.811 16.8307 155.811 15.7188V8.77344H154.225C154.133 8.77344 154.088 8.58203 154.088 8.19922C154.088 8.08984 154.097 8.02604 154.115 8.00781C154.662 7.7526 155.236 7.26953 155.838 6.55859C156.257 6.06641 156.567 5.63802 156.768 5.27344C156.986 4.90885 157.096 4.6901 157.096 4.61719C157.643 4.61719 157.916 4.66276 157.916 4.75391V7.46094L160.076 7.48828H161.607C161.753 7.48828 161.826 7.57031 161.826 7.73438C161.826 8.08073 161.735 8.42708 161.553 8.77344H157.916V15.4727C157.916 16.2018 158.098 16.7852 158.463 17.2227C158.846 17.6602 159.338 17.8789 159.939 17.8789C160.505 17.8789 161.07 17.7057 161.635 17.3594C161.689 17.3229 161.771 17.4049 161.881 17.6055C161.99 17.7878 162.036 17.888 162.018 17.9062C161.744 18.1979 161.325 18.4896 160.76 18.7812C160.195 19.0547 159.611 19.1914 159.01 19.1914ZM168.744 19.1641C167.742 19.1641 166.821 18.8997 165.982 18.3711C165.144 17.8424 164.469 17.1406 163.959 16.2656C163.467 15.3724 163.221 14.3789 163.221 13.2852C163.221 12.0091 163.458 10.9062 163.932 9.97656C164.406 9.04688 165.053 8.33594 165.873 7.84375C166.693 7.33333 167.614 7.07812 168.635 7.07812C169.473 7.07812 170.212 7.24219 170.85 7.57031C171.488 7.88021 171.98 8.28125 172.326 8.77344C172.654 9.28385 172.891 9.80339 173.037 10.332C173.201 10.8424 173.283 11.3529 173.283 11.8633C173.283 12.2279 173.229 12.4557 173.119 12.5469C173.01 12.6198 172.8 12.6562 172.49 12.6562H165.6C165.454 12.6562 165.381 12.7018 165.381 12.793C165.381 13.5586 165.536 14.2969 165.846 15.0078C166.156 15.7005 166.611 16.2747 167.213 16.7305C167.814 17.1862 168.553 17.4141 169.428 17.4141C170.193 17.4141 170.831 17.3047 171.342 17.0859C171.87 16.849 172.253 16.6393 172.49 16.457L172.682 16.3203C172.791 16.3203 172.846 16.4388 172.846 16.6758C172.846 16.8034 172.791 16.9674 172.682 17.168C172.317 17.6784 171.779 18.1432 171.068 18.5625C170.357 18.9635 169.583 19.1641 168.744 19.1641ZM165.6 11.5078H170.932C171.023 11.5078 171.068 11.4167 171.068 11.2344C171.068 10.8333 170.959 10.3958 170.74 9.92188C170.54 9.42969 170.23 9.0013 169.811 8.63672C169.391 8.27214 168.863 8.08984 168.225 8.08984C167.641 8.08984 167.14 8.29036 166.721 8.69141C166.301 9.07422 165.982 9.52083 165.764 10.0312C165.545 10.5234 165.436 10.9518 165.436 11.3164C165.436 11.444 165.49 11.5078 165.6 11.5078ZM5.99414 55.082C5.92122 55.0091 5.88477 54.8815 5.88477 54.6992C5.88477 54.4622 5.92122 54.3438 5.99414 54.3438C6.13997 54.3438 6.34049 54.3164 6.5957 54.2617C6.86914 54.207 7.11523 54.1341 7.33398 54.043C7.57096 53.9336 7.70768 53.8333 7.74414 53.7422C7.81706 53.4505 7.87174 53.0859 7.9082 52.6484C7.94466 52.2109 7.96289 51.7005 7.96289 51.1172V47.6992C7.96289 47.444 7.77148 46.9336 7.38867 46.168C7.18815 45.8034 6.80534 45.1016 6.24023 44.0625C5.67513 43.0234 4.91862 41.6654 3.9707 39.9883C3.67904 39.4414 3.45117 39.0677 3.28711 38.8672C3.14128 38.6484 2.92253 38.4388 2.63086 38.2383C2.43034 38.0924 2.12956 37.9557 1.72852 37.8281C1.32747 37.7005 1.03581 37.6367 0.853516 37.6367C0.780599 37.6367 0.744141 37.5365 0.744141 37.3359C0.744141 37.1172 0.780599 36.9714 0.853516 36.8984L2.33008 36.9805C2.67643 36.9987 2.99544 37.0169 3.28711 37.0352C3.59701 37.0534 3.87956 37.0625 4.13477 37.0625C4.35352 37.0625 5.55664 37.0078 7.74414 36.8984C7.7806 36.9714 7.78971 37.1172 7.77148 37.3359C7.77148 37.5365 7.74414 37.6367 7.68945 37.6367C7.37956 37.6367 7.02409 37.7188 6.62305 37.8828C6.24023 38.0286 6.04883 38.2565 6.04883 38.5664C6.04883 38.7487 6.14909 39.0221 6.34961 39.3867L9.41211 45.1836C9.52148 45.2747 9.61263 45.2565 9.68555 45.1289C12.1647 41.3919 13.4043 39.1953 13.4043 38.5391C13.4043 38.3385 13.222 38.138 12.8574 37.9375C12.4928 37.737 12.0462 37.6367 11.5176 37.6367C11.4447 37.6367 11.4082 37.5273 11.4082 37.3086C11.4082 37.1081 11.4447 36.9714 11.5176 36.8984L14.7441 37.0625C15.0358 37.0807 15.3275 37.0807 15.6191 37.0625C15.9108 37.026 16.2025 36.9987 16.4941 36.9805C17.0957 36.9258 17.4785 36.8984 17.6426 36.8984C17.679 37.0443 17.6973 37.181 17.6973 37.3086C17.6973 37.5273 17.6608 37.6367 17.5879 37.6367C17.4421 37.6367 17.2142 37.6732 16.9043 37.7461C16.5944 37.819 16.2845 37.9193 15.9746 38.0469C15.6829 38.1745 15.4733 38.3203 15.3457 38.4844C15.0723 38.9219 14.7259 39.4779 14.3066 40.1523C13.8874 40.8086 13.4499 41.5195 12.9941 42.2852C12.5384 43.0326 12.11 43.7526 11.709 44.4453C11.3079 45.1198 10.9798 45.694 10.7246 46.168C10.4694 46.6419 10.3418 46.9336 10.3418 47.043V51.1992C10.3418 51.7643 10.36 52.2565 10.3965 52.6758C10.4329 53.0951 10.4876 53.4505 10.5605 53.7422C10.597 53.8151 10.7246 53.9062 10.9434 54.0156C11.1803 54.1068 11.4264 54.1888 11.6816 54.2617C11.9368 54.3164 12.1191 54.3438 12.2285 54.3438C12.3014 54.3438 12.3379 54.4622 12.3379 54.6992C12.3379 54.8086 12.3197 54.9362 12.2832 55.082C11.3717 55.0456 10.6608 55.0182 10.1504 55C9.63997 54.9635 9.33008 54.9453 9.2207 54.9453L5.99414 55.082ZM27.8691 55C25.6999 55 24.0319 54.362 22.8652 53.0859C21.6986 51.8099 21.1152 49.75 21.1152 46.9062V40.6992C21.1152 40.1341 21.097 39.651 21.0605 39.25C21.0423 38.8307 20.9967 38.5026 20.9238 38.2656C20.8874 38.1562 20.7507 38.0651 20.5137 37.9922C20.2767 37.901 20.0215 37.8281 19.748 37.7734C19.4746 37.7188 19.2559 37.6914 19.0918 37.6914C19.0189 37.6914 18.9824 37.5729 18.9824 37.3359C18.9824 37.1172 19.0189 36.9714 19.0918 36.8984L22.373 37.0352C22.5189 37.0352 22.8561 37.026 23.3848 37.0078C23.9134 36.9714 24.6335 36.9349 25.5449 36.8984C25.5814 37.0443 25.5996 37.1719 25.5996 37.2812C25.5996 37.5547 25.5632 37.6914 25.4902 37.6914C25.3809 37.6914 25.1895 37.7279 24.916 37.8008C24.6426 37.8555 24.3874 37.9284 24.1504 38.0195C23.9134 38.0924 23.7767 38.1745 23.7402 38.2656C23.5762 38.8854 23.4941 39.7331 23.4941 40.8086V46.9062C23.4941 48.9661 23.9316 50.6068 24.8066 51.8281C25.6816 53.0495 26.9212 53.6602 28.5254 53.6602C31.6426 53.6602 33.2012 51.6094 33.2012 47.5078V40.6719C33.2012 39.5234 33.1374 38.7214 33.0098 38.2656C32.9733 38.1562 32.8092 38.056 32.5176 37.9648C32.2259 37.8737 31.916 37.8008 31.5879 37.7461C31.2598 37.6732 31.0137 37.6367 30.8496 37.6367C30.7767 37.6367 30.7402 37.5273 30.7402 37.3086C30.7402 37.1081 30.7767 36.9714 30.8496 36.8984C31.0137 36.8984 31.2871 36.9167 31.6699 36.9531C32.0527 36.9714 32.4629 36.9987 32.9004 37.0352C33.3561 37.0534 33.748 37.0625 34.0762 37.0625C34.5501 37.0625 35.1517 37.0352 35.8809 36.9805C36.5918 36.9258 37.0111 36.8984 37.1387 36.8984C37.1751 37.0443 37.1934 37.181 37.1934 37.3086C37.1934 37.5273 37.1569 37.6367 37.084 37.6367C36.9746 37.6367 36.7467 37.6732 36.4004 37.7461C36.054 37.819 35.7259 37.901 35.416 37.9922C35.1243 38.0833 34.9603 38.1745 34.9238 38.2656C34.8509 38.5573 34.7962 38.9128 34.7598 39.332C34.7233 39.7513 34.7051 40.2435 34.7051 40.8086V47.4531C34.7051 49.3307 34.4408 50.8255 33.9121 51.9375C33.3835 53.0312 32.6087 53.8151 31.5879 54.2891C30.5671 54.763 29.3275 55 27.8691 55ZM53.873 55.1367C53.5814 55.1367 53.2806 54.9271 52.9707 54.5078L42.3613 39.4688V51.1445C42.3613 52.3841 42.4251 53.2318 42.5527 53.6875C42.5892 53.7604 42.7441 53.8516 43.0176 53.9609C43.3092 54.0521 43.6191 54.1341 43.9473 54.207C44.2754 54.2617 44.4941 54.2891 44.6035 54.2891C44.6582 54.2891 44.6855 54.3984 44.6855 54.6172C44.7038 54.8359 44.6947 54.9909 44.6582 55.082C43.7467 55.0456 43.0267 55.0182 42.498 55C41.9876 54.9635 41.6595 54.9453 41.5137 54.9453L38.3691 55.082C38.3145 55.0273 38.2871 54.8906 38.2871 54.6719C38.2871 54.4167 38.3145 54.2891 38.3691 54.2891C38.5514 54.2891 38.8066 54.2617 39.1348 54.207C39.4629 54.1341 39.7728 54.0521 40.0645 53.9609C40.3561 53.8516 40.5202 53.7422 40.5566 53.6328C40.7389 53.1953 40.8301 52.3385 40.8301 51.0625V40.3164C40.8301 39.3867 40.7663 38.7031 40.6387 38.2656C40.6022 38.1562 40.4382 38.0651 40.1465 37.9922C39.873 37.901 39.5723 37.8281 39.2441 37.7734C38.916 37.7188 38.6608 37.6914 38.4785 37.6914C38.4056 37.6914 38.3691 37.5729 38.3691 37.3359C38.3691 37.1172 38.4056 36.9714 38.4785 36.8984C39.1895 36.9167 39.7728 36.9349 40.2285 36.9531C40.7025 36.9531 41.0488 36.9531 41.2676 36.9531C41.7415 36.9531 42.1608 36.9531 42.5254 36.9531C42.89 36.9349 43.1999 36.9167 43.4551 36.8984C43.8014 37.5182 44.7402 38.9492 46.2715 41.1914C47.821 43.4154 49.972 46.4505 52.7246 50.2969C52.7793 49.987 52.8066 49.6133 52.8066 49.1758V40.6719C52.8066 39.5234 52.7428 38.7214 52.6152 38.2656C52.5788 38.1562 52.4147 38.056 52.123 37.9648C51.8314 37.8737 51.5215 37.8008 51.1934 37.7461C50.8652 37.6732 50.6191 37.6367 50.4551 37.6367C50.3822 37.6367 50.3457 37.5273 50.3457 37.3086C50.3457 37.1081 50.3822 36.9714 50.4551 36.8984C50.6191 36.8984 50.8926 36.9167 51.2754 36.9531C51.6582 36.9714 52.0684 36.9987 52.5059 37.0352C52.9616 37.0534 53.3535 37.0625 53.6816 37.0625C54.1556 37.0625 54.7572 37.0352 55.4863 36.9805C56.1973 36.9258 56.6165 36.8984 56.7441 36.8984C56.7806 37.0443 56.7988 37.181 56.7988 37.3086C56.7988 37.5273 56.7624 37.6367 56.6895 37.6367C56.5801 37.6367 56.3522 37.6732 56.0059 37.7461C55.6595 37.819 55.3314 37.901 55.0215 37.9922C54.7298 38.0833 54.5658 38.1745 54.5293 38.2656C54.4564 38.5573 54.4017 38.9128 54.3652 39.332C54.3288 39.7513 54.3105 40.2435 54.3105 40.8086V51.1992C54.3105 52.3294 54.3379 53.6055 54.3926 55.0273C54.3197 55.1003 54.1465 55.1367 53.873 55.1367ZM58.6035 55.082C58.5306 55.0091 58.4941 54.8724 58.4941 54.6719C58.4941 54.4167 58.5306 54.2891 58.6035 54.2891C58.7676 54.2891 58.9863 54.2708 59.2598 54.2344C59.5332 54.1797 59.7884 54.1068 60.0254 54.0156C60.2624 53.9245 60.3991 53.8333 60.4355 53.7422C60.5085 53.487 60.554 53.1589 60.5723 52.7578C60.6087 52.3568 60.627 51.8737 60.627 51.3086V40.6992C60.627 40.1341 60.6087 39.651 60.5723 39.25C60.554 38.8307 60.5085 38.5026 60.4355 38.2656C60.3991 38.1562 60.2624 38.0651 60.0254 37.9922C59.7884 37.901 59.5332 37.8281 59.2598 37.7734C58.9863 37.7188 58.7676 37.6914 58.6035 37.6914C58.5306 37.6914 58.4941 37.5729 58.4941 37.3359C58.4941 37.1172 58.5306 36.9714 58.6035 36.8984C58.7676 36.8984 59.041 36.9167 59.4238 36.9531C59.8249 36.9714 60.2533 36.9987 60.709 37.0352C61.1647 37.0534 61.5566 37.0625 61.8848 37.0625C62.4681 37.0625 63.0514 37.0443 63.6348 37.0078C64.2181 36.9531 64.6921 36.9167 65.0566 36.8984C65.0931 36.9714 65.1022 37.1263 65.084 37.3633C65.084 37.582 65.0566 37.6914 65.002 37.6914C64.8926 37.6914 64.7012 37.7279 64.4277 37.8008C64.1543 37.8555 63.8991 37.9284 63.6621 38.0195C63.4251 38.0924 63.2884 38.1745 63.252 38.2656C63.0879 38.8854 63.0059 39.7331 63.0059 40.8086V44.8828L63.0605 44.9648C63.9538 44.9831 64.7467 45.0013 65.4395 45.0195C66.1322 45.0195 66.7246 45.0195 67.2168 45.0195C67.7454 45.0195 68.347 45.0195 69.0215 45.0195C69.696 45.0013 70.4434 44.9831 71.2637 44.9648C71.3001 44.9284 71.3184 44.8919 71.3184 44.8555V40.6992C71.3184 40.1341 71.3001 39.651 71.2637 39.25C71.2454 38.8307 71.1999 38.5026 71.127 38.2656C71.0905 38.1562 70.9538 38.0651 70.7168 37.9922C70.4798 37.901 70.2246 37.8281 69.9512 37.7734C69.6777 37.7188 69.459 37.6914 69.2949 37.6914C69.222 37.6914 69.1855 37.5729 69.1855 37.3359C69.1855 37.1172 69.222 36.9714 69.2949 36.8984C69.4408 36.8984 69.7142 36.9167 70.1152 36.9531C70.5163 36.9714 70.9447 36.9987 71.4004 37.0352C71.8743 37.0534 72.2754 37.0625 72.6035 37.0625C73.1868 37.0625 73.7611 37.0443 74.3262 37.0078C74.8913 36.9531 75.3561 36.9167 75.7207 36.8984C75.7572 37.0443 75.7754 37.181 75.7754 37.3086C75.7754 37.5638 75.7389 37.6914 75.666 37.6914C75.5566 37.6914 75.3652 37.7279 75.0918 37.8008C74.8184 37.8555 74.5632 37.9284 74.3262 38.0195C74.0892 38.0924 73.9525 38.1745 73.916 38.2656C73.8431 38.5573 73.7884 38.9128 73.752 39.332C73.7155 39.7513 73.6973 40.2435 73.6973 40.8086V51.1992C73.6973 51.7643 73.7155 52.2565 73.752 52.6758C73.7884 53.0951 73.8431 53.4505 73.916 53.7422C73.9525 53.8151 74.0892 53.8971 74.3262 53.9883C74.5632 54.0794 74.8184 54.1523 75.0918 54.207C75.3652 54.2617 75.5566 54.2891 75.666 54.2891C75.7389 54.2891 75.7754 54.4258 75.7754 54.6992C75.7754 54.8086 75.7572 54.9362 75.7207 55.082C74.8092 55.0456 74.0892 55.0182 73.5605 55C73.0501 54.9635 72.7311 54.9453 72.6035 54.9453L69.2949 55.082C69.222 55.0091 69.1855 54.8542 69.1855 54.6172C69.1855 54.3984 69.222 54.2891 69.2949 54.2891C69.459 54.2891 69.6777 54.2708 69.9512 54.2344C70.2246 54.1797 70.4798 54.1068 70.7168 54.0156C70.9538 53.9245 71.0905 53.8333 71.127 53.7422C71.1999 53.487 71.2454 53.1589 71.2637 52.7578C71.3001 52.3568 71.3184 51.8737 71.3184 51.3086V46.4961L71.2637 46.3867C70.4069 46.3685 69.6413 46.3594 68.9668 46.3594C68.2923 46.3411 67.709 46.332 67.2168 46.332C64.4095 46.332 63.0059 46.3776 63.0059 46.4688V51.1992C63.0059 52.2565 63.0879 53.1042 63.252 53.7422C63.2884 53.8151 63.4251 53.8971 63.6621 53.9883C63.8991 54.0794 64.1543 54.1523 64.4277 54.207C64.7012 54.2617 64.8926 54.2891 65.002 54.2891C65.0566 54.2891 65.084 54.3984 65.084 54.6172C65.1022 54.8359 65.0931 54.9909 65.0566 55.082C64.1452 55.0456 63.4251 55.0182 62.8965 55C62.3678 54.9635 62.0306 54.9453 61.8848 54.9453L58.6035 55.082ZM80.5605 52.5664C78.847 50.7799 77.9902 48.6016 77.9902 46.0312C77.9902 44.7552 78.2181 43.5612 78.6738 42.4492C79.1296 41.319 79.7493 40.3346 80.5332 39.4961C81.3353 38.6393 82.265 37.974 83.3223 37.5C84.3796 37.0078 85.5098 36.7617 86.7129 36.7617C87.916 36.7617 89.0462 37.0078 90.1035 37.5C91.1608 37.974 92.0905 38.6393 92.8926 39.4961C93.6947 40.3346 94.3236 41.319 94.7793 42.4492C95.235 43.5612 95.4629 44.7552 95.4629 46.0312C95.4629 48.6016 94.6061 50.7799 92.8926 52.5664C91.7259 53.806 90.4043 54.6263 88.9277 55.0273C87.4512 55.4466 85.9746 55.4466 84.498 55.0273C83.0397 54.6263 81.7272 53.806 80.5605 52.5664ZM87.1504 54.0977C88.3171 54.0977 89.3379 53.7148 90.2129 52.9492C91.0879 52.2018 91.7259 51.2721 92.127 50.1602C92.5462 49.0299 92.7559 47.8268 92.7559 46.5508C92.7559 45.1107 92.5189 43.7344 92.0449 42.4219C91.571 41.1276 90.8327 40.0521 89.8301 39.1953C88.8275 38.3385 87.6517 37.9102 86.3027 37.9102C85.1543 37.9102 84.1608 38.2656 83.3223 38.9766C82.4837 39.6693 81.8366 40.5898 81.3809 41.7383C80.9251 42.8685 80.6973 44.099 80.6973 45.4297C80.6973 46.8698 80.9342 48.2461 81.4082 49.5586C81.8822 50.8529 82.6204 51.9375 83.623 52.8125C84.6257 53.6693 85.8014 54.0977 87.1504 54.0977ZM109.736 55.082C108.114 55.082 106.82 54.6901 105.854 53.9062C104.906 53.1224 104.432 52.0469 104.432 50.6797C104.432 49.4948 104.833 48.5104 105.635 47.7266C106.437 46.9245 107.549 46.1589 108.971 45.4297C108.588 44.7917 108.223 44.0625 107.877 43.2422C107.549 42.4219 107.385 41.6107 107.385 40.8086C107.385 40.1159 107.558 39.487 107.904 38.9219C108.269 38.3568 108.752 37.9102 109.354 37.582C109.955 37.2357 110.639 37.0625 111.404 37.0625C112.626 37.0625 113.592 37.3359 114.303 37.8828C115.014 38.4115 115.369 39.1589 115.369 40.125C115.369 41.237 115.014 42.1849 114.303 42.9688C113.592 43.7526 112.589 44.5456 111.295 45.3477C111.824 46.2409 112.425 47.1432 113.1 48.0547C113.774 48.9661 114.521 49.8776 115.342 50.7891C115.579 50.4427 115.788 50.1055 115.971 49.7773C116.153 49.431 116.317 49.1029 116.463 48.793C116.755 48.1914 116.9 47.7904 116.9 47.5898C116.9 47.3346 116.745 47.1979 116.436 47.1797C116.144 47.1432 115.889 47.1159 115.67 47.0977C115.633 46.9883 115.615 46.8789 115.615 46.7695C115.615 46.6237 115.643 46.5234 115.697 46.4688H117.857C118.495 46.4688 119.061 46.4505 119.553 46.4141C120.063 46.3776 120.501 46.3503 120.865 46.332C120.956 46.3867 121.002 46.5052 121.002 46.6875C121.002 46.9609 120.947 47.0977 120.838 47.0977C120.692 47.0977 120.482 47.125 120.209 47.1797C119.954 47.2344 119.708 47.2982 119.471 47.3711C119.234 47.4258 119.061 47.4896 118.951 47.5625C118.878 47.6354 118.714 47.8906 118.459 48.3281C118.204 48.7474 117.876 49.2578 117.475 49.8594C117.074 50.4609 116.618 51.0534 116.107 51.6367C116.691 52.2383 117.137 52.694 117.447 53.0039C117.775 53.2956 118.031 53.4961 118.213 53.6055C118.413 53.7148 118.605 53.7695 118.787 53.7695C119.042 53.7695 119.316 53.6146 119.607 53.3047C119.917 52.9948 120.118 52.7305 120.209 52.5117C120.355 52.5117 120.492 52.5664 120.619 52.6758C120.765 52.7852 120.838 52.8945 120.838 53.0039C120.729 53.2227 120.564 53.487 120.346 53.7969C120.127 54.1068 119.817 54.3893 119.416 54.6445C119.033 54.8815 118.514 55 117.857 55C117.383 55 116.882 54.8359 116.354 54.5078C115.843 54.1615 115.442 53.8333 115.15 53.5234L114.713 53.0312C113.163 54.3984 111.505 55.082 109.736 55.082ZM110.803 44.4727C111.751 43.9258 112.434 43.3789 112.854 42.832C113.291 42.2669 113.51 41.4922 113.51 40.5078C113.51 39.8516 113.327 39.2773 112.963 38.7852C112.598 38.293 112.124 38.0469 111.541 38.0469C110.939 38.0469 110.429 38.2474 110.01 38.6484C109.59 39.0312 109.381 39.5326 109.381 40.1523C109.381 41.319 109.855 42.7591 110.803 44.4727ZM110.666 53.9062C111.231 53.9062 111.833 53.7695 112.471 53.4961C113.127 53.2227 113.665 52.8581 114.084 52.4023C113.738 52.0378 113.327 51.5638 112.854 50.9805C112.398 50.3971 111.942 49.7956 111.486 49.1758C111.049 48.556 110.666 48 110.338 47.5078L109.6 46.4141C109.089 46.7786 108.615 47.1341 108.178 47.4805C107.758 47.8086 107.421 48.1914 107.166 48.6289C106.911 49.0664 106.783 49.6224 106.783 50.2969C106.783 51.5 107.157 52.4023 107.904 53.0039C108.652 53.6055 109.572 53.9062 110.666 53.9062ZM128.713 55.082C128.64 55.0091 128.604 54.8724 128.604 54.6719C128.604 54.4167 128.64 54.2891 128.713 54.2891C128.877 54.2891 129.096 54.2708 129.369 54.2344C129.643 54.1797 129.898 54.1068 130.135 54.0156C130.372 53.9245 130.508 53.8333 130.545 53.7422C130.618 53.487 130.663 53.1589 130.682 52.7578C130.718 52.3568 130.736 51.8737 130.736 51.3086V40.6992C130.736 40.1341 130.718 39.651 130.682 39.25C130.663 38.8307 130.618 38.5026 130.545 38.2656C130.508 38.1562 130.372 38.0651 130.135 37.9922C129.898 37.901 129.643 37.8281 129.369 37.7734C129.096 37.7188 128.877 37.6914 128.713 37.6914C128.64 37.6914 128.604 37.5729 128.604 37.3359C128.604 37.1172 128.64 36.9714 128.713 36.8984C128.877 36.8984 129.15 36.9167 129.533 36.9531C129.934 36.9714 130.363 36.9987 130.818 37.0352C131.274 37.0534 131.666 37.0625 131.994 37.0625C132.577 37.0625 133.161 37.0443 133.744 37.0078C134.327 36.9531 134.801 36.9167 135.166 36.8984C135.202 36.9714 135.212 37.1263 135.193 37.3633C135.193 37.582 135.166 37.6914 135.111 37.6914C135.002 37.6914 134.811 37.7279 134.537 37.8008C134.264 37.8555 134.008 37.9284 133.771 38.0195C133.535 38.0924 133.398 38.1745 133.361 38.2656C133.197 38.8854 133.115 39.7331 133.115 40.8086V44.8828L133.17 44.9648C134.063 44.9831 134.856 45.0013 135.549 45.0195C136.242 45.0195 136.834 45.0195 137.326 45.0195C137.855 45.0195 138.456 45.0195 139.131 45.0195C139.805 45.0013 140.553 44.9831 141.373 44.9648C141.41 44.9284 141.428 44.8919 141.428 44.8555V40.6992C141.428 40.1341 141.41 39.651 141.373 39.25C141.355 38.8307 141.309 38.5026 141.236 38.2656C141.2 38.1562 141.063 38.0651 140.826 37.9922C140.589 37.901 140.334 37.8281 140.061 37.7734C139.787 37.7188 139.568 37.6914 139.404 37.6914C139.331 37.6914 139.295 37.5729 139.295 37.3359C139.295 37.1172 139.331 36.9714 139.404 36.8984C139.55 36.8984 139.824 36.9167 140.225 36.9531C140.626 36.9714 141.054 36.9987 141.51 37.0352C141.984 37.0534 142.385 37.0625 142.713 37.0625C143.296 37.0625 143.87 37.0443 144.436 37.0078C145.001 36.9531 145.465 36.9167 145.83 36.8984C145.867 37.0443 145.885 37.181 145.885 37.3086C145.885 37.5638 145.848 37.6914 145.775 37.6914C145.666 37.6914 145.475 37.7279 145.201 37.8008C144.928 37.8555 144.673 37.9284 144.436 38.0195C144.199 38.0924 144.062 38.1745 144.025 38.2656C143.952 38.5573 143.898 38.9128 143.861 39.332C143.825 39.7513 143.807 40.2435 143.807 40.8086V51.1992C143.807 51.7643 143.825 52.2565 143.861 52.6758C143.898 53.0951 143.952 53.4505 144.025 53.7422C144.062 53.8151 144.199 53.8971 144.436 53.9883C144.673 54.0794 144.928 54.1523 145.201 54.207C145.475 54.2617 145.666 54.2891 145.775 54.2891C145.848 54.2891 145.885 54.4258 145.885 54.6992C145.885 54.8086 145.867 54.9362 145.83 55.082C144.919 55.0456 144.199 55.0182 143.67 55C143.16 54.9635 142.84 54.9453 142.713 54.9453L139.404 55.082C139.331 55.0091 139.295 54.8542 139.295 54.6172C139.295 54.3984 139.331 54.2891 139.404 54.2891C139.568 54.2891 139.787 54.2708 140.061 54.2344C140.334 54.1797 140.589 54.1068 140.826 54.0156C141.063 53.9245 141.2 53.8333 141.236 53.7422C141.309 53.487 141.355 53.1589 141.373 52.7578C141.41 52.3568 141.428 51.8737 141.428 51.3086V46.4961L141.373 46.3867C140.516 46.3685 139.751 46.3594 139.076 46.3594C138.402 46.3411 137.818 46.332 137.326 46.332C134.519 46.332 133.115 46.3776 133.115 46.4688V51.1992C133.115 52.2565 133.197 53.1042 133.361 53.7422C133.398 53.8151 133.535 53.8971 133.771 53.9883C134.008 54.0794 134.264 54.1523 134.537 54.207C134.811 54.2617 135.002 54.2891 135.111 54.2891C135.166 54.2891 135.193 54.3984 135.193 54.6172C135.212 54.8359 135.202 54.9909 135.166 55.082C134.255 55.0456 133.535 55.0182 133.006 55C132.477 54.9635 132.14 54.9453 131.994 54.9453L128.713 55.082ZM152.557 55.082C152.484 55.0091 152.447 54.8815 152.447 54.6992C152.447 54.4622 152.484 54.3438 152.557 54.3438C152.702 54.3438 152.903 54.3164 153.158 54.2617C153.432 54.207 153.678 54.1341 153.896 54.043C154.133 53.9336 154.27 53.8333 154.307 53.7422C154.38 53.4505 154.434 53.0859 154.471 52.6484C154.507 52.2109 154.525 51.7005 154.525 51.1172V47.6992C154.525 47.444 154.334 46.9336 153.951 46.168C153.751 45.8034 153.368 45.1016 152.803 44.0625C152.238 43.0234 151.481 41.6654 150.533 39.9883C150.242 39.4414 150.014 39.0677 149.85 38.8672C149.704 38.6484 149.485 38.4388 149.193 38.2383C148.993 38.0924 148.692 37.9557 148.291 37.8281C147.89 37.7005 147.598 37.6367 147.416 37.6367C147.343 37.6367 147.307 37.5365 147.307 37.3359C147.307 37.1172 147.343 36.9714 147.416 36.8984L148.893 36.9805C149.239 36.9987 149.558 37.0169 149.85 37.0352C150.16 37.0534 150.442 37.0625 150.697 37.0625C150.916 37.0625 152.119 37.0078 154.307 36.8984C154.343 36.9714 154.352 37.1172 154.334 37.3359C154.334 37.5365 154.307 37.6367 154.252 37.6367C153.942 37.6367 153.587 37.7188 153.186 37.8828C152.803 38.0286 152.611 38.2565 152.611 38.5664C152.611 38.7487 152.712 39.0221 152.912 39.3867L155.975 45.1836C156.084 45.2747 156.175 45.2565 156.248 45.1289C158.727 41.3919 159.967 39.1953 159.967 38.5391C159.967 38.3385 159.785 38.138 159.42 37.9375C159.055 37.737 158.609 37.6367 158.08 37.6367C158.007 37.6367 157.971 37.5273 157.971 37.3086C157.971 37.1081 158.007 36.9714 158.08 36.8984L161.307 37.0625C161.598 37.0807 161.89 37.0807 162.182 37.0625C162.473 37.026 162.765 36.9987 163.057 36.9805C163.658 36.9258 164.041 36.8984 164.205 36.8984C164.242 37.0443 164.26 37.181 164.26 37.3086C164.26 37.5273 164.223 37.6367 164.15 37.6367C164.005 37.6367 163.777 37.6732 163.467 37.7461C163.157 37.819 162.847 37.9193 162.537 38.0469C162.245 38.1745 162.036 38.3203 161.908 38.4844C161.635 38.9219 161.288 39.4779 160.869 40.1523C160.45 40.8086 160.012 41.5195 159.557 42.2852C159.101 43.0326 158.673 43.7526 158.271 44.4453C157.87 45.1198 157.542 45.694 157.287 46.168C157.032 46.6419 156.904 46.9336 156.904 47.043V51.1992C156.904 51.7643 156.923 52.2565 156.959 52.6758C156.995 53.0951 157.05 53.4505 157.123 53.7422C157.16 53.8151 157.287 53.9062 157.506 54.0156C157.743 54.1068 157.989 54.1888 158.244 54.2617C158.499 54.3164 158.682 54.3438 158.791 54.3438C158.864 54.3438 158.9 54.4622 158.9 54.6992C158.9 54.8086 158.882 54.9362 158.846 55.082C157.934 55.0456 157.223 55.0182 156.713 55C156.202 54.9635 155.893 54.9453 155.783 54.9453L152.557 55.082ZM178.178 55.1094C177.722 55.1094 177.12 55.1003 176.373 55.082C175.644 55.082 174.778 55.0729 173.775 55.0547C172.773 55.0365 171.861 55.0182 171.041 55C170.221 55 169.492 55 168.854 55L165.545 55.082C165.49 55.0273 165.463 54.8815 165.463 54.6445C165.463 54.4076 165.49 54.2891 165.545 54.2891C165.709 54.2891 165.928 54.2617 166.201 54.207C166.475 54.1341 166.73 54.0521 166.967 53.9609C167.222 53.8698 167.377 53.7695 167.432 53.6602C167.559 53.4596 167.623 52.6029 167.623 51.0898V40.7539C167.623 40.2253 167.605 39.7604 167.568 39.3594C167.55 38.9583 167.505 38.6393 167.432 38.4023C167.395 38.293 167.249 38.1927 166.994 38.1016C166.757 38.0104 166.493 37.9375 166.201 37.8828C165.928 37.8281 165.709 37.8008 165.545 37.8008C165.472 37.8008 165.436 37.6914 165.436 37.4727C165.436 37.2357 165.472 37.0807 165.545 37.0078C166.019 37.026 166.52 37.0443 167.049 37.0625C167.596 37.0625 168.179 37.0625 168.799 37.0625C169.218 37.0625 169.783 37.0534 170.494 37.0352C171.205 37.0169 172.062 36.9896 173.064 36.9531C174.085 36.9167 174.969 36.8893 175.717 36.8711C176.482 36.8529 177.12 36.8438 177.631 36.8438C177.667 37.099 177.722 37.4089 177.795 37.7734C177.868 38.1198 177.959 38.5026 178.068 38.9219C178.16 39.3594 178.232 39.7148 178.287 39.9883C178.36 40.2617 178.406 40.4531 178.424 40.5625C178.333 40.6536 178.169 40.6992 177.932 40.6992C177.695 40.6992 177.567 40.6354 177.549 40.5078C177.275 39.5052 176.893 38.8672 176.4 38.5938C175.908 38.3021 175.234 38.1562 174.377 38.1562H172.545C170.959 38.1562 170.157 38.2747 170.139 38.5117C170.102 38.7305 170.066 39.0312 170.029 39.4141C170.011 39.7969 170.002 40.2617 170.002 40.8086V45.1836C170.002 45.293 170.394 45.3477 171.178 45.3477H172.627C173.247 45.3477 173.666 45.3477 173.885 45.3477C174.104 45.3294 174.258 45.3021 174.35 45.2656C174.459 45.2292 174.66 45.1745 174.951 45.1016C175.133 45.0651 175.27 44.8555 175.361 44.4727C175.471 44.0716 175.562 43.7435 175.635 43.4883C175.653 43.3607 175.79 43.2969 176.045 43.2969C176.264 43.2969 176.419 43.3424 176.51 43.4336V48.6016C176.437 48.6745 176.291 48.7109 176.072 48.7109C175.835 48.7109 175.689 48.638 175.635 48.4922C175.562 48.237 175.498 48.0182 175.443 47.8359C175.389 47.6536 175.343 47.4987 175.307 47.3711C175.215 47.1159 175.143 46.9701 175.088 46.9336C175.051 46.8971 174.979 46.8424 174.869 46.7695C174.614 46.6237 173.648 46.5508 171.971 46.5508C170.658 46.5508 170.002 46.6328 170.002 46.7969V51.0352C170.002 52.2201 170.084 53.0495 170.248 53.5234C170.303 53.7057 170.923 53.7969 172.107 53.7969H173.42C175.097 53.7969 176.245 53.6419 176.865 53.332C177.139 53.1862 177.439 52.8672 177.768 52.375C178.114 51.8646 178.387 51.263 178.588 50.5703C178.624 50.4609 178.752 50.4062 178.971 50.4062C179.317 50.4062 179.545 50.4609 179.654 50.5703C179.6 50.7161 179.508 50.944 179.381 51.2539C179.271 51.5456 179.162 51.8464 179.053 52.1562C178.943 52.4661 178.852 52.7305 178.779 52.9492C178.67 53.2773 178.551 53.651 178.424 54.0703C178.296 54.4896 178.214 54.8359 178.178 55.1094ZM181.404 55.082C181.331 55.0091 181.295 54.8724 181.295 54.6719C181.295 54.4167 181.331 54.2891 181.404 54.2891C181.568 54.2891 181.787 54.2708 182.061 54.2344C182.334 54.1797 182.589 54.1068 182.826 54.0156C183.063 53.9245 183.2 53.8333 183.236 53.7422C183.309 53.487 183.355 53.1589 183.373 52.7578C183.41 52.3568 183.428 51.8737 183.428 51.3086V40.6992C183.428 40.1341 183.41 39.651 183.373 39.25C183.355 38.8307 183.309 38.5026 183.236 38.2656C183.2 38.1562 183.063 38.0651 182.826 37.9922C182.589 37.901 182.334 37.8281 182.061 37.7734C181.787 37.7188 181.568 37.6914 181.404 37.6914C181.331 37.6914 181.295 37.5729 181.295 37.3359C181.295 37.1172 181.331 36.9714 181.404 36.8984L184.686 37.0352C184.831 37.0352 185.169 37.026 185.697 37.0078C186.226 36.9714 186.946 36.9349 187.857 36.8984C187.894 37.0443 187.912 37.181 187.912 37.3086C187.912 37.5638 187.876 37.6914 187.803 37.6914C187.693 37.6914 187.502 37.7279 187.229 37.8008C186.955 37.8555 186.7 37.9284 186.463 38.0195C186.226 38.0924 186.089 38.1745 186.053 38.2656C185.889 38.8854 185.807 39.7331 185.807 40.8086V51.1992C185.807 52.2565 185.889 53.1042 186.053 53.7422C186.089 53.8151 186.226 53.8971 186.463 53.9883C186.7 54.0794 186.955 54.1523 187.229 54.207C187.502 54.2617 187.693 54.2891 187.803 54.2891C187.876 54.2891 187.912 54.4258 187.912 54.6992C187.912 54.8086 187.894 54.9362 187.857 55.082C186.946 55.0456 186.226 55.0182 185.697 55C185.169 54.9635 184.831 54.9453 184.686 54.9453L181.404 55.082ZM205.084 55.1367C204.792 55.1367 204.492 54.9271 204.182 54.5078L193.572 39.4688V51.1445C193.572 52.3841 193.636 53.2318 193.764 53.6875C193.8 53.7604 193.955 53.8516 194.229 53.9609C194.52 54.0521 194.83 54.1341 195.158 54.207C195.486 54.2617 195.705 54.2891 195.814 54.2891C195.869 54.2891 195.896 54.3984 195.896 54.6172C195.915 54.8359 195.906 54.9909 195.869 55.082C194.958 55.0456 194.238 55.0182 193.709 55C193.199 54.9635 192.87 54.9453 192.725 54.9453L189.58 55.082C189.525 55.0273 189.498 54.8906 189.498 54.6719C189.498 54.4167 189.525 54.2891 189.58 54.2891C189.762 54.2891 190.018 54.2617 190.346 54.207C190.674 54.1341 190.984 54.0521 191.275 53.9609C191.567 53.8516 191.731 53.7422 191.768 53.6328C191.95 53.1953 192.041 52.3385 192.041 51.0625V40.3164C192.041 39.3867 191.977 38.7031 191.85 38.2656C191.813 38.1562 191.649 38.0651 191.357 37.9922C191.084 37.901 190.783 37.8281 190.455 37.7734C190.127 37.7188 189.872 37.6914 189.689 37.6914C189.617 37.6914 189.58 37.5729 189.58 37.3359C189.58 37.1172 189.617 36.9714 189.689 36.8984C190.4 36.9167 190.984 36.9349 191.439 36.9531C191.913 36.9531 192.26 36.9531 192.479 36.9531C192.952 36.9531 193.372 36.9531 193.736 36.9531C194.101 36.9349 194.411 36.9167 194.666 36.8984C195.012 37.5182 195.951 38.9492 197.482 41.1914C199.032 43.4154 201.183 46.4505 203.936 50.2969C203.99 49.987 204.018 49.6133 204.018 49.1758V40.6719C204.018 39.5234 203.954 38.7214 203.826 38.2656C203.79 38.1562 203.626 38.056 203.334 37.9648C203.042 37.8737 202.732 37.8008 202.404 37.7461C202.076 37.6732 201.83 37.6367 201.666 37.6367C201.593 37.6367 201.557 37.5273 201.557 37.3086C201.557 37.1081 201.593 36.9714 201.666 36.8984C201.83 36.8984 202.104 36.9167 202.486 36.9531C202.869 36.9714 203.279 36.9987 203.717 37.0352C204.173 37.0534 204.564 37.0625 204.893 37.0625C205.367 37.0625 205.968 37.0352 206.697 36.9805C207.408 36.9258 207.827 36.8984 207.955 36.8984C207.992 37.0443 208.01 37.181 208.01 37.3086C208.01 37.5273 207.973 37.6367 207.9 37.6367C207.791 37.6367 207.563 37.6732 207.217 37.7461C206.87 37.819 206.542 37.901 206.232 37.9922C205.941 38.0833 205.777 38.1745 205.74 38.2656C205.667 38.5573 205.613 38.9128 205.576 39.332C205.54 39.7513 205.521 40.2435 205.521 40.8086V51.1992C205.521 52.3294 205.549 53.6055 205.604 55.0273C205.531 55.1003 205.357 55.1367 205.084 55.1367Z" fill="black"/>
</svg>
