<svg width="730" height="108" viewBox="0 0 730 108" fill="none" xmlns="http://www.w3.org/2000/svg">
<path d="M24.12 88.128C6.264 88.128 0.144 78.984 1.872 67.104C4.536 47.952 26.64 21.816 50.976 16.056C58.464 8.64 68.832 2.59199 78.984 2.59199C92.088 2.59199 98.784 7.992 97.272 18.648C93.528 45.144 50.184 88.128 24.12 88.128ZM24.192 87.408C46.512 87.408 88.704 44.64 92.664 16.704C93.96 7.704 89.568 3.312 78.84 3.312C70.2 3.312 61.416 8.568 54.72 15.336C56.664 15.048 58.68 14.832 60.696 14.832C62.784 14.832 64.728 14.976 66.6 15.264L66.456 15.624C64.656 15.336 62.28 15.264 60.624 15.264C58.464 15.264 56.232 15.48 54.144 15.912C48.456 21.888 44.424 28.8 43.704 34.2C42.984 39.312 45 43.056 51.048 43.056C61.92 43.056 68.616 36 74.304 29.448L74.52 29.88C68.688 36.576 61.848 43.776 50.904 43.776C42.264 43.776 39.312 39.744 40.104 34.2C40.824 29.088 44.568 22.68 50.04 16.992C28.8 23.616 9.432 48.744 6.912 67.104C5.256 78.552 9.936 87.408 24.192 87.408ZM99.8314 45H106.599C105.231 46.584 98.3194 54 92.0554 61.632C89.3914 64.872 86.8714 68.184 84.9274 71.064C83.7034 72.864 82.0474 75.168 81.6874 77.472C81.4714 79.128 82.0474 80.64 84.0634 80.64C90.5434 80.64 99.6874 71.424 106.455 64.368L109.479 61.2C114.879 53.712 121.359 46.08 122.367 45H129.135C127.767 46.584 120.855 54 114.591 61.632C111.927 64.872 109.407 68.184 107.391 71.064C106.167 72.864 104.511 75.168 104.151 77.472C103.935 79.128 104.511 80.64 106.527 80.64C113.583 80.64 123.591 70.056 130.359 62.928L133.743 59.4L134.247 59.832L132.447 61.704C132.015 62.136 131.511 62.568 131.079 63.072C124.167 70.344 113.871 81.36 106.455 81.36C102.783 81.36 101.775 78.192 102.207 74.952C102.423 73.368 103.071 71.64 103.863 70.128C104.655 68.544 105.735 66.672 106.959 64.8C100.119 72 90.7594 81.36 83.9914 81.36C80.3194 81.36 79.3114 78.192 79.7434 74.952C79.9594 73.368 80.6074 71.64 81.3994 70.128C85.8634 61.2 98.4634 46.512 99.8314 45ZM144.607 66.816C141.007 70.992 136.471 75.6 136.111 78.12C135.895 79.776 136.399 80.64 138.271 80.64C145.327 80.64 155.335 70.056 162.103 62.928L165.487 59.4L165.991 59.832L164.191 61.704C163.759 62.136 163.255 62.568 162.823 63.072C155.911 70.344 145.615 81.36 138.199 81.36C134.527 81.36 132.151 79.128 132.583 75.888C133.087 72.504 136.759 67.896 140.503 64.008C143.959 60.408 150.583 53.136 151.015 49.968C151.303 47.736 148.423 46.872 147.199 45.36C143.671 49.752 137.551 56.376 133.951 60.12L133.447 59.688C137.191 55.728 143.527 48.96 146.839 44.784C145.471 43.2 145.039 41.616 145.255 40.248C145.543 38.448 146.911 37.08 148.783 37.08C149.431 37.08 149.647 37.44 149.503 38.016C149.359 39.312 147.991 41.544 147.703 43.488C147.631 43.92 147.631 44.352 147.703 44.784C149.647 47.592 154.543 47.304 153.823 52.56C153.175 57.024 147.703 63.288 144.607 66.816ZM207.248 71.712C194.36 71.712 189.752 65.808 190.976 57.384C193.784 37.224 227.84 2.59199 260.744 2.59199C275.504 2.59199 279.824 11.16 278.168 22.968C275.144 44.496 251.96 76.68 234.608 87.12C256.064 77.976 275.864 60.192 300.992 31.464C303.44 28.656 305.96 26.136 308.696 23.976H309.272C291.992 40.248 287.816 80.856 261.68 87.696C262.328 87.768 262.976 87.768 263.624 87.768C281.48 87.768 298.688 66.6 317.48 43.272C318.92 41.544 320.36 39.816 321.728 38.016C336.056 20.088 351.176 0.287996 376.232 0.287996C385.016 0.287996 388.544 5.90399 387.608 12.6C387.464 13.752 387.176 14.832 386.816 15.912L386.096 15.768C386.456 14.688 386.744 13.608 386.888 12.6C387.752 6.336 384.512 1.008 376.16 1.008C351.608 1.008 335.624 28.224 321.008 46.296C305.888 65.088 284.936 88.488 264.056 88.488C262.616 88.488 261.104 88.344 259.664 88.128V87.696C276.008 82.656 283.352 56.376 295.736 38.592C294.368 40.032 293 41.616 291.488 43.344C277.232 59.472 252.248 84.384 225.392 91.08V90.36C245.408 84.744 269.816 47.016 273.128 23.112C274.784 11.592 271.472 3.312 260.6 3.312C230.432 3.312 198.752 37.512 196.016 57.384C194.864 65.376 198.032 70.992 207.32 70.992C229.28 70.992 247.64 47.016 249.44 33.984C250.16 29.232 248.936 25.992 245.264 25.992C242.384 25.992 238.496 26.784 233.528 29.376V29.16C238.64 26.424 242.6 25.272 245.336 25.272C251.456 25.272 253.76 28.8 253.04 33.984C251.168 47.304 231.368 71.712 207.248 71.712ZM329.369 81.36C321.16 81.36 319 76.752 319.72 71.424C320.296 67.176 322.745 62.424 325.337 59.328C332.393 50.904 341.249 44.712 350.321 44.712C353.633 44.712 356.297 46.08 355.865 49.176C354.929 55.512 340.457 61.992 330.449 61.992H329.945C327.425 65.16 324.257 70.488 323.681 74.592C323.177 78.048 324.473 80.64 329.441 80.64C337.793 80.64 351.761 68.256 358.457 61.272L360.257 59.4L360.761 59.832L358.961 61.704C352.121 68.904 338.009 81.36 329.369 81.36ZM350.465 45.432C345.785 45.432 337.433 52.92 330.521 61.272C340.816 61.2 352.625 55.152 353.489 48.888C353.777 46.944 352.985 45.432 350.465 45.432ZM359.994 81.36C353.802 81.36 352.146 78.192 352.722 74.016C353.442 69.192 357.114 63.072 360.282 59.328C367.77 50.472 376.194 44.712 385.266 44.712C388.578 44.712 390.378 46.368 389.946 49.32C389.874 50.04 389.658 50.832 389.298 51.696C388.938 52.344 388.65 53.064 388.29 53.784C392.466 48.384 396.786 43.416 399.162 40.464L416.226 19.224H422.274L402.546 43.704C395.418 52.56 387.57 60.912 380.514 71.064C379.29 72.864 377.634 75.168 377.274 77.472C377.058 79.128 377.634 80.64 379.65 80.64C386.706 80.64 396.714 70.056 403.482 62.928L406.866 59.4L407.37 59.832L405.57 61.704C405.138 62.136 404.634 62.568 404.202 63.072C397.29 70.344 386.994 81.36 379.578 81.36C375.906 81.36 374.898 78.192 375.33 74.952C375.546 73.368 376.194 71.64 376.986 70.128C377.346 69.336 377.85 68.472 378.426 67.536C371.874 74.952 364.242 81.36 359.994 81.36ZM365.322 61.488C362.73 64.584 356.898 72.144 356.25 76.752C355.89 79.056 356.898 80.64 360.066 80.64C364.962 80.64 375.762 70.344 382.89 60.84C385.338 57.456 387.498 54.144 388.578 51.48C388.938 50.688 389.082 50.04 389.154 49.392C389.514 46.944 388.362 45.432 385.194 45.432C380.37 45.432 372.306 53.064 365.322 61.488ZM406.611 81.36C400.419 81.36 398.763 78.192 399.339 74.016C400.059 69.192 403.731 63.072 406.899 59.328C414.387 50.472 422.811 44.712 431.883 44.712C435.195 44.712 436.995 46.368 436.563 49.32C436.491 50.04 436.275 50.832 435.915 51.696C435.555 52.344 435.267 53.064 434.907 53.784C439.083 48.384 443.403 43.416 445.779 40.464L462.843 19.224H468.891L449.163 43.704C442.035 52.56 434.187 60.912 427.131 71.064C425.907 72.864 424.251 75.168 423.891 77.472C423.675 79.128 424.251 80.64 426.267 80.64C433.323 80.64 443.331 70.056 450.099 62.928L453.483 59.4L453.987 59.832L452.187 61.704C451.755 62.136 451.251 62.568 450.819 63.072C443.907 70.344 433.611 81.36 426.195 81.36C422.523 81.36 421.515 78.192 421.947 74.952C422.163 73.368 422.811 71.64 423.603 70.128C423.963 69.336 424.467 68.472 425.043 67.536C418.491 74.952 410.859 81.36 406.611 81.36ZM411.939 61.488C409.347 64.584 403.515 72.144 402.867 76.752C402.507 79.056 403.515 80.64 406.683 80.64C411.579 80.64 422.379 70.344 429.507 60.84C431.955 57.456 434.115 54.144 435.195 51.48C435.555 50.688 435.699 50.04 435.771 49.392C436.131 46.944 434.979 45.432 431.811 45.432C426.987 45.432 418.923 53.064 411.939 61.488ZM449.124 81.36C445.452 81.36 444.444 78.192 444.876 74.952C445.092 73.368 445.74 71.64 446.532 70.128C450.996 61.2 463.596 46.512 464.964 45H471.732C470.364 46.584 463.452 54 457.188 61.632C454.524 64.872 452.004 68.184 450.06 71.064C448.836 72.864 447.18 75.168 446.82 77.472C446.604 79.128 447.18 80.64 449.196 80.64C456.18 80.64 466.188 70.056 472.956 62.928L476.34 59.4L476.844 59.832L475.044 61.704C474.612 62.136 474.108 62.568 473.676 63.072C466.764 70.344 456.468 81.36 449.124 81.36ZM470.58 36.936C470.796 35.136 472.308 33.768 474.036 33.768C475.836 33.768 476.988 35.136 476.772 36.936C476.484 38.592 474.972 39.888 473.172 39.888C471.444 39.888 470.292 38.592 470.58 36.936ZM487.384 75.888C488.104 71.064 492.064 66.312 495.448 62.352C500.272 56.592 505.168 51.912 505.672 48.312C505.96 46.656 505.456 45.432 503.584 45.432C496.528 45.432 486.52 56.016 479.752 63.144L476.944 66.096L464.992 81H458.944L487.888 45H493.936L482.128 59.616C488.824 52.704 497.32 44.712 503.656 44.712C507.328 44.712 508.624 47.88 508.192 51.12C507.544 55.656 503.944 59.688 500.992 63.432C494.944 70.776 491.344 75.168 490.912 78.12C490.696 79.776 491.2 80.64 493.072 80.64C500.128 80.64 510.136 70.056 516.904 62.928L520.288 59.4L520.792 59.832L518.992 61.704C518.56 62.136 518.056 62.568 517.624 63.072C510.712 70.344 500.416 81.36 493 81.36C489.328 81.36 486.952 79.128 487.384 75.888ZM520.025 81.36C513.833 81.36 512.177 78.192 512.753 74.016C513.473 69.192 517.145 63.072 520.313 59.328C527.801 50.472 536.225 44.712 545.297 44.712C548.609 44.712 550.409 46.368 549.977 49.32C549.905 50.04 549.689 50.832 549.329 51.696C548.753 52.848 548.177 54.072 547.457 55.368L555.809 45H561.857L530.249 84.24C540.257 80.856 552.065 74.952 566.321 59.4L566.825 59.832C551.993 76.104 539.753 81.792 529.457 85.176L520.961 95.832C512.609 106.2 506.489 107.136 503.393 107.136C500.513 107.136 498.929 105.264 499.289 102.6C500.513 93.96 514.985 88.776 522.185 86.688L533.345 72.864C528.305 77.76 523.193 81.36 520.025 81.36ZM520.097 80.64C524.561 80.64 533.921 72.144 540.905 63.432C544.289 59.184 547.241 54.864 548.609 51.48C548.969 50.688 549.113 50.04 549.185 49.392C549.545 46.944 548.393 45.432 545.225 45.432C540.401 45.432 532.337 53.064 525.353 61.488C522.761 64.584 516.929 72.144 516.281 76.752C515.921 79.056 516.929 80.64 520.097 80.64ZM503.537 106.416C506.417 106.416 509.513 102.528 517.289 92.952L521.537 87.552C514.481 89.712 501.161 94.824 500.009 102.6C499.721 104.832 501.089 106.416 503.537 106.416ZM591.181 81.36C584.989 81.36 583.333 78.192 583.909 74.016C584.629 69.192 588.301 63.072 591.469 59.328C598.957 50.472 607.381 44.712 616.453 44.712C619.765 44.712 621.565 46.368 621.133 49.32C621.061 50.04 620.845 50.832 620.485 51.696C620.125 52.344 619.837 53.064 619.477 53.784C623.653 48.384 627.973 43.416 630.349 40.464L647.413 19.224H653.461L633.733 43.704C626.605 52.56 618.757 60.912 611.701 71.064C610.477 72.864 608.821 75.168 608.461 77.472C608.245 79.128 608.821 80.64 610.837 80.64C617.893 80.64 627.901 70.056 634.669 62.928L638.053 59.4L638.557 59.832L636.757 61.704C636.325 62.136 635.821 62.568 635.389 63.072C628.477 70.344 618.181 81.36 610.765 81.36C607.093 81.36 606.085 78.192 606.517 74.952C606.733 73.368 607.381 71.64 608.173 70.128C608.533 69.336 609.037 68.472 609.613 67.536C603.061 74.952 595.429 81.36 591.181 81.36ZM596.509 61.488C593.917 64.584 588.085 72.144 587.437 76.752C587.077 79.056 588.085 80.64 591.253 80.64C596.149 80.64 606.949 70.344 614.077 60.84C616.525 57.456 618.685 54.144 619.765 51.48C620.125 50.688 620.269 50.04 620.341 49.392C620.701 46.944 619.549 45.432 616.381 45.432C611.557 45.432 603.493 53.064 596.509 61.488ZM637.799 81.36C631.606 81.36 629.95 78.192 630.526 74.016C631.246 69.192 634.918 63.072 638.087 59.328C645.575 50.472 653.999 44.712 663.071 44.712C666.383 44.712 668.183 46.368 667.751 49.32C667.679 50.04 667.463 50.832 667.103 51.696L666.023 53.856C669.623 49.32 672.647 45.72 673.367 45H680.135C678.767 46.584 671.855 54 665.591 61.632C662.927 64.872 660.407 68.184 658.391 71.064C657.167 72.864 655.511 75.168 655.151 77.472C654.935 79.128 655.511 80.64 657.527 80.64C664.583 80.64 674.591 70.056 681.359 62.928L684.743 59.4L685.247 59.832L683.447 61.704C683.015 62.136 682.511 62.568 682.079 63.072C675.167 70.344 664.871 81.36 657.455 81.36C653.783 81.36 652.775 78.192 653.207 74.952C653.423 73.368 654.07 71.64 654.863 70.128C655.223 69.264 655.799 68.256 656.447 67.248C649.895 74.808 642.047 81.36 637.799 81.36ZM643.127 61.488C640.535 64.584 634.702 72.144 634.054 76.752C633.694 79.056 634.702 80.64 637.871 80.64C642.839 80.64 653.855 70.056 660.983 60.48C663.359 57.24 665.303 54.072 666.383 51.48C666.743 50.688 666.887 50.04 666.959 49.392C667.319 46.944 666.167 45.432 662.999 45.432C658.175 45.432 650.111 53.064 643.127 61.488ZM696.222 45H702.99C701.622 46.584 694.71 54 688.446 61.632C685.782 64.872 683.262 68.184 681.318 71.064C680.094 72.864 678.438 75.168 678.078 77.472C677.862 79.128 678.438 80.64 680.454 80.64C686.718 80.64 695.574 72 702.198 65.088L718.398 45H724.446L692.838 84.24C702.846 80.856 714.654 74.952 728.91 59.4L729.414 59.832C714.582 76.104 702.342 81.792 692.046 85.176L683.55 95.832C675.198 106.2 669.078 107.136 665.982 107.136C663.102 107.136 661.518 105.264 661.878 102.6C663.102 93.96 677.574 88.776 684.774 86.688L697.95 70.272C692.118 76.032 685.494 81.36 680.382 81.36C676.71 81.36 675.702 78.192 676.134 74.952C676.35 73.368 676.998 71.64 677.79 70.128C682.254 61.2 694.854 46.512 696.222 45ZM666.126 106.416C669.006 106.416 672.102 102.528 679.878 92.952L684.126 87.552C677.07 89.712 663.75 94.824 662.598 102.6C662.31 104.832 663.678 106.416 666.126 106.416Z" fill="black"/>
</svg>
